<?xml version="1.0" standalone="no"?>
<!DOCTYPE svg PUBLIC "-//W3C//DTD SVG 20010904//EN"
 "http://www.w3.org/TR/2001/REC-SVG-20010904/DTD/svg10.dtd">
<svg version="1.0" xmlns="http://www.w3.org/2000/svg"
 width="3840.000000pt" height="3840.000000pt" viewBox="0 0 3840.000000 3840.000000"
 preserveAspectRatio="xMidYMid meet">

<g transform="translate(0.000000,3840.000000) scale(0.100000,-0.100000)"
fill="#000000" stroke="none">
<path d="M22041 37395 c-46 -44 -68 -57 -105 -64 -26 -5 -58 -19 -72 -32 -23
-22 -37 -24 -149 -29 -114 -5 -125 -7 -150 -30 -26 -24 -31 -25 -198 -28 -171
-3 -172 -3 -200 -30 -28 -27 -28 -27 -210 -30 l-182 -3 -28 -27 c-27 -26 -34
-27 -150 -30 -67 -2 -126 -7 -130 -12 -5 -4 9 -26 31 -49 29 -31 47 -41 70
-41 21 0 39 -9 57 -27 23 -26 32 -28 123 -33 92 -5 97 -6 100 -28 6 -42 -13
-52 -103 -52 -76 0 -86 -2 -116 -27 l-33 -28 -260 -3 c-225 -3 -263 -5 -279
-19 -28 -26 -18 -57 20 -61 37 -4 50 -17 55 -56 3 -27 0 -30 -37 -39 -22 -5
-71 -7 -108 -4 -56 4 -73 9 -95 30 -27 26 -28 26 -202 28 -200 1 -208 -3 -140
-64 26 -24 50 -37 68 -37 45 0 52 -15 52 -120 0 -87 -2 -99 -25 -130 -16 -21
-25 -47 -25 -69 0 -30 -9 -45 -61 -97 -38 -39 -59 -67 -54 -74 4 -7 25 -20 46
-29 42 -19 119 -85 119 -102 0 -6 -5 -19 -10 -30 -10 -17 -22 -19 -117 -19
-103 0 -106 1 -140 30 -18 17 -38 30 -43 30 -5 0 -25 -13 -43 -30 -21 -18 -46
-30 -62 -30 -21 0 -47 -20 -110 -81 -70 -68 -89 -81 -124 -86 -47 -6 -71 -32
-71 -75 0 -20 -16 -45 -55 -88 -30 -33 -55 -64 -55 -70 0 -5 13 -24 29 -42 16
-19 32 -52 36 -73 6 -31 22 -55 73 -107 41 -42 75 -68 88 -68 12 0 38 -16 59
-35 l37 -36 144 2 c78 0 148 -2 153 -6 18 -10 13 -45 -6 -46 -10 0 -97 0 -193
1 -96 1 -183 -2 -193 -6 -10 -3 -25 -20 -33 -36 -15 -30 -10 -47 21 -70 6 -4
112 -8 237 -8 l227 0 34 -30 c33 -28 39 -30 120 -30 82 0 88 -2 120 -30 34
-30 36 -30 150 -30 114 0 115 0 147 -30 31 -29 36 -30 120 -30 83 0 88 -1 118
-30 30 -29 36 -30 120 -30 85 0 90 -1 120 -30 28 -26 39 -30 90 -30 52 0 63
-4 90 -30 20 -19 42 -30 60 -30 22 0 44 -15 90 -60 58 -57 63 -60 110 -60 75
0 82 -5 82 -58 0 -41 -5 -51 -42 -89 -23 -24 -49 -43 -58 -43 -39 0 -58 -28
-62 -95 -3 -53 -9 -70 -30 -92 -23 -25 -27 -38 -30 -110 -3 -80 -4 -83 -42
-122 l-39 -40 5 -100 c5 -109 -4 -140 -37 -127 -16 6 -17 16 -12 96 5 81 4 91
-13 100 -15 8 -23 5 -39 -16 -12 -15 -21 -34 -21 -43 0 -9 -8 -28 -17 -41 -14
-19 -19 -53 -23 -147 -5 -112 -7 -123 -30 -148 -22 -23 -26 -38 -30 -120 -5
-82 -9 -98 -30 -120 -18 -19 -26 -42 -31 -91 -5 -48 -13 -71 -30 -90 -17 -18
-25 -41 -30 -90 -5 -48 -13 -71 -30 -90 -17 -18 -25 -41 -30 -90 -5 -48 -13
-71 -30 -90 -17 -18 -25 -41 -30 -90 -5 -48 -13 -71 -30 -90 -17 -18 -25 -41
-30 -90 -5 -48 -13 -71 -30 -90 -17 -18 -25 -41 -30 -89 -5 -48 -13 -72 -33
-95 -14 -17 -26 -42 -26 -54 0 -13 -11 -44 -25 -70 -15 -29 -25 -63 -25 -89 0
-38 -6 -47 -62 -104 l-63 -64 -5 -182 c-5 -182 -5 -183 -32 -216 -21 -25 -28
-43 -28 -76 0 -62 -7 -74 -48 -81 -48 -8 -72 -30 -72 -64 0 -16 -12 -39 -30
-58 -26 -28 -30 -39 -30 -92 0 -51 -4 -63 -26 -83 -17 -16 -29 -42 -35 -71 -5
-26 -17 -58 -28 -72 -14 -18 -19 -40 -19 -79 1 -49 -3 -59 -36 -95 -20 -22
-36 -47 -36 -56 0 -9 -13 -32 -30 -51 -26 -29 -30 -42 -30 -90 0 -48 -4 -61
-27 -85 -23 -24 -28 -40 -34 -103 -4 -52 -11 -81 -24 -95 -12 -13 -19 -39 -21
-70 -2 -42 -8 -57 -38 -90 -32 -36 -36 -46 -36 -94 0 -44 -5 -60 -30 -91 -25
-31 -30 -47 -30 -90 0 -43 -5 -59 -30 -90 -25 -31 -30 -47 -30 -90 0 -38 -6
-60 -22 -80 -17 -21 -22 -42 -23 -96 -1 -60 -4 -72 -28 -97 -22 -23 -29 -41
-31 -81 -3 -39 -10 -60 -29 -79 -22 -24 -25 -38 -29 -119 -4 -83 -7 -96 -30
-120 -23 -25 -26 -38 -30 -120 -4 -83 -7 -96 -30 -120 -23 -25 -26 -38 -30
-121 l-4 -93 -56 -57 -56 -57 -4 -92 c-4 -83 -7 -96 -30 -120 -21 -22 -27 -41
-30 -91 -3 -50 -9 -67 -31 -90 -22 -23 -27 -37 -27 -80 0 -43 4 -55 28 -77
l27 -25 0 -374 0 -375 -27 -28 c-26 -27 -27 -32 -30 -169 -3 -137 -4 -141 -31
-173 -26 -31 -28 -39 -25 -110 4 -89 16 -99 66 -50 23 22 32 40 32 64 0 23 8
39 30 58 18 16 30 37 30 52 0 16 12 34 35 52 26 21 35 36 35 59 0 21 10 41 30
62 20 22 30 42 30 63 0 23 10 42 40 71 51 51 70 41 70 -37 0 -46 -5 -59 -36
-96 -29 -35 -35 -49 -30 -73 3 -17 9 -55 12 -84 6 -49 5 -54 -15 -59 -22 -6
-26 -16 -35 -98 -4 -33 -14 -57 -31 -75 -20 -21 -25 -36 -25 -81 0 -48 -4 -59
-30 -84 -27 -25 -30 -35 -30 -87 0 -32 3 -58 8 -58 4 0 40 33 80 73 56 57 72
79 72 102 1 18 12 44 30 65 17 19 30 45 30 59 0 13 8 33 18 44 9 10 22 40 27
65 9 43 13 47 42 50 26 3 34 -2 49 -27 10 -16 26 -32 36 -34 26 -7 25 -67 -2
-74 -24 -6 -36 -39 -20 -58 7 -8 28 -15 46 -15 41 0 46 13 49 148 5 239 3 221
30 234 19 8 31 8 50 0 23 -11 25 -17 25 -75 0 -55 -3 -67 -25 -87 -30 -28 -31
-41 -5 -65 26 -23 25 -43 -2 -72 -19 -20 -22 -34 -20 -87 2 -57 0 -65 -28 -94
-27 -28 -30 -39 -30 -94 -1 -55 -5 -67 -30 -98 -34 -39 -42 -108 -15 -130 20
-17 35 -3 44 42 6 28 11 33 36 33 23 0 30 -6 37 -30 14 -48 1 -116 -28 -146
-25 -26 -26 -32 -27 -152 -2 -113 -4 -128 -24 -156 -32 -43 -31 -94 3 -120 15
-12 34 -21 43 -21 29 0 41 -22 41 -72 0 -38 -6 -54 -30 -81 l-30 -35 0 -164 0
-164 30 -29 c18 -18 30 -39 30 -55 0 -20 24 -50 104 -128 128 -126 138 -128
220 -46 31 31 56 61 56 68 0 6 14 27 30 46 16 19 30 46 30 60 0 43 14 53 60
47 23 -3 51 -14 62 -24 19 -17 20 -17 44 10 13 16 24 36 24 46 0 10 11 28 24
40 13 13 27 39 31 59 4 20 20 51 36 70 16 18 29 43 29 55 0 12 11 39 25 59 14
20 25 51 25 67 0 19 11 43 30 64 17 19 30 43 30 53 1 11 14 35 30 54 17 19 30
45 30 58 0 16 21 47 60 89 42 44 60 72 60 90 0 19 23 50 90 119 69 71 90 100
90 121 1 16 13 43 30 63 17 19 30 45 30 59 0 16 15 41 42 68 l42 43 259 0 259
0 35 30 34 30 179 0 179 0 34 30 35 30 179 0 179 0 29 30 c29 30 29 30 145 30
114 0 116 0 150 30 34 28 38 29 147 30 110 0 113 1 146 30 34 30 36 30 150 30
115 0 117 0 151 30 l34 30 218 -2 219 -3 -48 -50 c-27 -27 -54 -62 -61 -77 -7
-16 -45 -63 -84 -106 -40 -43 -80 -93 -90 -110 -9 -17 -48 -65 -87 -107 -38
-41 -74 -86 -80 -99 -5 -13 -34 -50 -63 -81 -28 -31 -59 -71 -68 -88 -9 -18
-44 -61 -79 -97 -34 -36 -70 -81 -80 -100 -10 -19 -51 -71 -92 -114 -40 -44
-73 -86 -73 -93 0 -8 -24 -40 -53 -71 -30 -31 -69 -79 -87 -107 -18 -27 -55
-73 -82 -102 -26 -28 -48 -60 -48 -70 0 -10 -30 -48 -66 -83 -36 -36 -75 -83
-86 -105 -11 -22 -54 -74 -94 -116 -41 -42 -74 -82 -74 -88 0 -7 -32 -45 -71
-86 -40 -41 -80 -92 -90 -115 -10 -23 -55 -80 -99 -127 -44 -47 -80 -90 -80
-94 0 -5 -23 -32 -51 -61 -29 -29 -58 -68 -66 -86 -7 -18 -46 -66 -86 -108
-39 -41 -79 -92 -87 -114 -8 -21 -41 -65 -72 -98 -32 -33 -58 -64 -58 -69 0
-5 -32 -42 -71 -82 -62 -65 -129 -151 -129 -164 0 -3 -25 -31 -55 -63 -31 -31
-63 -72 -71 -90 -9 -19 -38 -56 -64 -83 -26 -27 -64 -73 -84 -103 -19 -29 -65
-84 -101 -123 -37 -38 -73 -83 -80 -100 -8 -16 -41 -59 -74 -94 -33 -35 -63
-73 -67 -85 -4 -12 -33 -49 -65 -83 -33 -34 -59 -69 -59 -79 0 -9 -42 -61 -94
-114 -51 -53 -97 -107 -101 -121 -4 -13 -34 -52 -66 -87 -33 -34 -59 -69 -59
-77 0 -8 -28 -45 -63 -82 -35 -38 -77 -90 -94 -118 -18 -27 -51 -68 -73 -90
-23 -22 -63 -67 -88 -100 -25 -33 -72 -87 -104 -120 -32 -33 -61 -69 -64 -80
-4 -11 -32 -49 -63 -85 -31 -36 -69 -84 -83 -107 -40 -61 -104 -123 -128 -123
-27 0 -87 59 -133 130 -19 30 -65 86 -101 124 -37 38 -69 79 -72 90 -3 12 -32
50 -64 84 -33 34 -77 86 -99 115 -21 28 -64 77 -95 107 -31 30 -56 62 -56 72
0 10 -36 56 -80 102 -44 46 -80 91 -80 100 0 9 -25 43 -55 76 -30 33 -55 66
-55 74 0 7 -43 58 -95 112 -52 55 -94 107 -95 116 0 10 -31 51 -69 90 -37 40
-71 82 -75 93 -3 11 -38 54 -76 95 -39 41 -77 91 -86 110 -8 19 -46 66 -84
104 -39 38 -70 77 -70 88 0 10 -30 48 -66 84 -36 36 -72 81 -80 100 -8 19 -48
69 -89 112 -41 42 -75 84 -75 93 0 10 -32 50 -71 91 -38 40 -76 87 -83 103 -7
17 -43 61 -80 98 -36 38 -66 75 -66 83 0 7 -32 49 -71 91 -39 43 -77 92 -85
108 -7 17 -36 53 -64 80 -28 28 -68 75 -90 105 -21 30 -66 82 -99 115 -34 33
-61 67 -61 76 0 10 -29 49 -65 88 -35 39 -73 88 -85 111 -11 22 -25 40 -30 40
-6 0 -10 18 -10 40 0 29 -7 48 -30 73 -28 32 -30 40 -30 114 0 75 2 81 30 108
l30 29 0 121 0 121 30 26 c29 26 30 29 30 118 0 88 1 93 30 122 20 20 30 40
30 60 0 20 10 40 30 60 27 26 30 36 30 90 0 53 3 63 30 90 27 26 30 36 30 88
l0 59 62 61 c53 51 68 60 98 60 20 0 41 -5 48 -12 20 -20 92 64 92 107 0 24 9
45 30 68 24 28 30 44 30 83 0 34 6 54 20 68 12 14 21 41 25 78 6 64 -5 80 -37
51 -13 -11 -35 -18 -62 -18 -38 0 -46 6 -113 74 l-73 74 0 240 0 239 30 35
c28 32 30 38 30 120 0 81 2 87 30 120 26 29 30 42 30 90 0 47 4 60 30 90 26
29 30 42 30 90 0 47 4 60 30 90 26 29 30 42 30 90 0 47 4 60 30 90 25 28 30
42 30 86 0 48 4 56 38 90 21 20 43 37 50 37 18 0 32 -35 32 -83 0 -52 20 -77
45 -57 11 9 15 35 15 102 0 86 1 92 30 125 28 32 30 38 30 122 0 74 3 91 19
105 17 15 20 35 23 146 3 121 4 130 28 155 23 24 25 36 30 146 6 111 8 121 32
146 26 27 26 32 30 179 l3 151 38 42 37 41 0 120 c0 103 2 120 17 129 15 8 19
29 24 112 5 92 8 104 30 122 22 17 25 30 30 119 5 90 8 103 29 118 19 15 25
31 31 91 6 53 13 77 26 86 45 31 53 46 53 103 0 43 5 61 19 74 14 12 20 35 23
89 4 62 9 77 31 99 25 25 27 34 27 107 0 70 3 83 25 109 14 17 25 35 25 41 0
6 -20 16 -45 22 -30 8 -55 23 -75 46 -29 33 -30 36 -30 142 0 95 2 110 20 126
16 14 20 31 20 82 0 34 -4 63 -8 63 -20 0 -150 -147 -156 -177 -6 -27 -13 -33
-41 -39 -57 -10 -243 0 -257 14 -10 10 -13 65 -13 228 l0 216 25 20 c23 18 26
29 31 121 6 92 8 102 31 121 39 32 48 58 48 135 0 50 4 74 16 85 20 20 53 20
82 0 19 -13 22 -24 22 -89 0 -131 17 -136 115 -30 38 41 75 75 83 75 8 0 30
-9 48 -21 l34 -21 0 37 c0 26 -8 43 -27 63 -24 24 -27 36 -32 122 -5 73 -10
101 -23 114 -13 13 -18 34 -18 80 0 55 -3 66 -30 96 -17 19 -34 46 -38 60 -4
14 -7 177 -7 362 l0 336 25 27 c22 23 26 38 30 119 5 82 9 96 33 125 34 40 34
48 0 84 -26 26 -28 36 -31 120 -3 83 -6 95 -30 120 -31 33 -60 35 -66 5 -3
-13 -7 -67 -8 -120 -3 -87 -5 -99 -28 -123 -22 -23 -26 -38 -30 -119 -5 -82
-9 -96 -33 -125 -15 -18 -27 -41 -27 -50 0 -10 -13 -32 -30 -49 -30 -32 -30
-32 -30 -150 0 -119 0 -119 -30 -150 -29 -30 -30 -36 -30 -120 0 -85 -1 -90
-30 -120 -29 -30 -30 -36 -30 -118 0 -85 0 -86 -36 -122 -32 -32 -35 -39 -29
-73 7 -41 -7 -79 -30 -79 -20 0 -27 33 -20 84 7 43 6 45 -20 52 -30 7 -45 -6
-45 -42 0 -12 -13 -38 -30 -59 -25 -31 -30 -47 -30 -92 0 -40 -6 -62 -22 -84
-20 -26 -23 -43 -23 -113 0 -82 -1 -84 -37 -125 -22 -23 -38 -51 -38 -65 0
-13 -13 -40 -30 -61 -16 -21 -30 -48 -30 -60 0 -12 -13 -39 -30 -60 -16 -21
-30 -49 -30 -62 0 -16 -20 -45 -57 -85 -65 -67 -85 -81 -107 -72 -14 5 -16 41
-16 288 l0 282 30 29 c27 26 30 35 30 90 0 55 3 64 30 90 l30 29 0 301 0 301
30 29 c21 20 30 38 30 62 0 35 21 53 62 53 16 0 46 22 91 68 63 64 67 70 71
122 l4 54 -84 87 c-59 61 -84 95 -84 112 0 13 -13 41 -30 62 l-30 38 0 439 0
439 -25 45 c-14 25 -25 53 -25 62 0 17 -18 57 -55 122 -8 14 -15 36 -15 50 0
39 -16 57 -37 44 -16 -10 -18 -30 -21 -159 l-3 -148 -29 -34 c-26 -29 -30 -42
-30 -90 0 -38 -5 -62 -16 -74 -9 -10 -20 -40 -25 -66 -8 -40 -20 -58 -76 -115
-57 -58 -72 -67 -106 -70 -47 -3 -55 -16 -28 -44 10 -12 22 -36 26 -55 4 -19
17 -45 30 -59 13 -14 26 -41 30 -60 4 -19 19 -48 34 -63 l26 -28 0 -304 0
-303 -25 -27 c-22 -23 -26 -38 -30 -120 -5 -84 -8 -97 -32 -122 -25 -27 -27
-34 -30 -150 -3 -116 -4 -123 -30 -150 -24 -25 -27 -36 -30 -120 -3 -83 -6
-94 -29 -120 -22 -22 -28 -40 -31 -89 -3 -48 -10 -68 -30 -92 -14 -17 -28 -46
-32 -65 -3 -18 -17 -44 -31 -57 -21 -20 -25 -33 -25 -80 0 -86 -33 -103 -94
-49 -23 19 -38 43 -42 65 -4 20 -18 49 -32 66 -20 24 -27 45 -31 104 -5 51
-11 77 -23 86 -9 7 -20 29 -23 48 -5 28 -1 43 19 73 25 36 26 44 26 182 0 80
-4 145 -9 145 -12 0 -27 -21 -36 -50 -4 -14 -18 -37 -30 -52 -12 -15 -25 -42
-29 -61 -3 -19 -15 -42 -26 -52 -11 -10 -25 -37 -31 -59 -6 -23 -20 -51 -32
-64 -11 -12 -23 -41 -26 -65 -6 -41 -7 -42 -46 -42 l-40 0 -3 63 c-3 73 -15
79 -61 27 -24 -28 -31 -45 -31 -79 0 -33 -7 -52 -30 -81 -25 -32 -30 -47 -30
-94 0 -42 -6 -66 -25 -96 -16 -26 -24 -55 -25 -85 0 -36 -6 -50 -32 -77 -27
-28 -33 -43 -39 -99 -5 -46 -13 -72 -28 -88 -12 -13 -27 -41 -32 -62 -14 -51
-55 -94 -90 -94 -36 0 -89 60 -89 100 0 18 -11 42 -30 63 -29 33 -30 38 -30
132 0 94 1 97 30 127 20 20 30 40 30 60 0 20 10 40 30 60 27 27 30 36 30 93 0
54 3 66 20 75 18 10 19 24 22 348 l3 338 27 32 c14 17 30 46 33 64 4 18 18 46
32 62 13 16 27 41 30 56 3 16 20 43 39 61 23 22 34 42 34 61 0 38 30 52 101
45 37 -3 68 -13 87 -27 45 -33 78 -22 93 32 6 23 22 55 35 71 22 26 24 37 24
137 l0 108 40 48 c21 26 40 59 42 73 2 20 10 27 37 32 49 10 237 199 253 254
6 22 20 49 30 61 13 14 18 36 18 77 0 48 4 61 29 90 l30 33 3 498 c2 421 0
498 -12 506 -20 12 -27 5 -35 -37 -3 -21 -16 -48 -28 -61 -15 -16 -23 -42 -28
-87 -5 -47 -13 -72 -31 -94 -14 -16 -28 -45 -32 -64 -3 -19 -15 -42 -26 -52
-11 -10 -25 -37 -31 -59 -6 -23 -21 -51 -32 -64 -17 -18 -23 -40 -27 -95 l-5
-72 -40 -3 c-50 -4 -62 -15 -76 -66 -6 -22 -21 -51 -32 -64 -16 -17 -23 -41
-27 -84 -6 -68 -25 -92 -57 -72 -16 10 -18 33 -18 234 l0 222 25 20 c19 16 25
32 31 86 6 55 11 70 33 87 l26 21 0 290 0 289 26 39 c31 45 20 70 -18 42 -13
-9 -39 -27 -59 -40 -21 -15 -43 -40 -52 -63 -8 -22 -22 -45 -31 -52 -9 -7 -21
-32 -27 -55 -7 -27 -28 -59 -61 -92 -40 -41 -52 -62 -59 -99 -7 -37 -20 -60
-59 -101 -34 -36 -50 -61 -50 -80 0 -16 -13 -41 -35 -65 -19 -22 -35 -46 -35
-55 0 -8 -25 -42 -56 -74 -45 -47 -58 -69 -65 -105 -5 -26 -18 -58 -29 -72
-11 -14 -20 -34 -20 -44 0 -10 -16 -34 -35 -53 -21 -21 -35 -45 -35 -59 0 -13
-13 -41 -30 -62 -16 -21 -30 -48 -30 -60 0 -12 -14 -39 -30 -60 -28 -35 -30
-44 -30 -117 0 -88 -11 -118 -41 -118 -30 0 -69 -44 -69 -78 0 -17 -10 -38
-25 -52 -23 -21 -25 -31 -25 -101 0 -100 -11 -129 -48 -129 -37 0 -68 -23 -77
-57 -3 -15 -22 -44 -41 -65 l-34 -38 0 -144 c0 -130 -2 -146 -21 -170 -19 -24
-20 -40 -22 -265 l-2 -240 -29 -29 c-26 -28 -28 -36 -30 -121 -1 -84 -3 -92
-29 -119 -24 -25 -29 -39 -30 -90 -2 -49 -7 -66 -27 -87 -14 -15 -29 -45 -35
-68 -9 -38 -13 -42 -43 -45 -27 -3 -34 1 -43 25 -6 15 -8 47 -5 71 5 36 1 50
-19 80 -14 20 -25 46 -25 58 0 12 -14 38 -30 59 -17 21 -30 48 -30 61 0 30
-25 54 -58 54 -15 0 -38 7 -52 15 -68 39 -69 39 -90 20 -27 -24 -25 -41 6 -72
20 -20 27 -39 33 -96 6 -52 13 -74 28 -86 11 -9 23 -33 27 -54 4 -21 19 -48
34 -62 l27 -25 0 -375 0 -374 -57 -58 -56 -58 -4 -81 c-3 -70 -6 -84 -30 -113
-24 -28 -28 -41 -28 -96 0 -91 -29 -106 -102 -52 -26 19 -28 19 -52 3 l-26
-16 0 -190 c0 -104 -4 -200 -9 -213 -7 -18 -22 -27 -54 -35 -54 -14 -111 -73
-121 -124 -3 -19 -15 -43 -26 -53 -11 -10 -25 -37 -31 -59 -6 -23 -20 -51 -32
-64 -15 -16 -23 -42 -28 -88 -5 -46 -13 -72 -28 -88 -12 -13 -27 -41 -33 -62
-5 -21 -21 -52 -34 -67 -19 -22 -24 -40 -24 -81 0 -37 -7 -67 -25 -100 -25
-46 -25 -51 -25 -275 l0 -228 -30 -38 c-27 -34 -30 -45 -30 -106 0 -39 4 -69
10 -69 25 0 73 58 79 96 6 37 8 39 41 39 l35 0 0 -76 c0 -68 -3 -79 -23 -96
-15 -12 -27 -36 -33 -67 -5 -26 -18 -59 -29 -73 -14 -19 -20 -41 -20 -81 0
-48 -4 -59 -35 -93 -29 -32 -35 -47 -35 -83 0 -33 -7 -52 -30 -81 -16 -21 -30
-44 -30 -53 0 -22 -30 6 -46 43 -7 17 -42 60 -78 97 -36 37 -66 72 -66 78 0 5
-33 45 -74 88 -40 42 -81 92 -90 110 -9 18 -48 65 -85 105 -37 40 -73 86 -80
103 -7 17 -37 55 -67 85 -31 30 -62 69 -70 88 -7 18 -44 64 -81 102 -37 38
-73 83 -80 100 -7 17 -44 63 -82 103 -38 39 -72 81 -76 94 -3 12 -38 56 -76
97 -38 41 -69 81 -69 89 0 7 -36 52 -80 100 -44 47 -80 92 -80 100 0 8 -34 50
-75 94 -41 44 -75 86 -75 95 0 8 -34 51 -75 96 -41 44 -75 87 -75 94 0 6 -28
41 -61 77 -33 36 -77 88 -98 115 -22 28 -64 75 -95 105 -31 30 -56 62 -56 72
0 10 -36 56 -80 102 -44 47 -80 93 -80 102 0 9 -31 48 -69 88 -38 39 -72 82
-76 95 -4 13 -40 58 -80 100 -40 42 -76 87 -80 100 -4 13 -39 58 -79 100 -39
42 -79 92 -90 111 -10 19 -42 60 -71 90 -28 30 -57 69 -64 86 -7 17 -41 59
-77 95 -36 35 -72 79 -79 97 -8 18 -41 61 -73 95 -32 34 -63 74 -69 88 -6 15
-46 63 -87 108 -42 44 -76 87 -76 95 0 8 -33 50 -73 93 -40 43 -78 89 -84 103
-6 14 -40 58 -77 98 -36 40 -66 78 -66 85 0 7 -34 49 -75 94 -41 45 -79 91
-83 103 -9 24 -107 139 -235 274 -42 45 -77 90 -77 100 0 10 -31 50 -69 90
-38 39 -72 82 -76 95 -4 13 -40 58 -81 101 -41 42 -74 85 -74 94 0 9 -36 54
-80 100 -44 46 -80 90 -80 98 0 8 -34 52 -75 97 -41 44 -75 87 -75 95 0 8 -34
50 -75 94 -41 44 -75 84 -75 89 0 6 -9 18 -20 28 -11 10 -20 22 -20 27 0 6
-26 37 -57 69 -31 33 -63 73 -70 90 -7 17 -39 58 -72 92 -32 34 -74 87 -94
117 -19 30 -54 73 -77 95 -23 22 -47 54 -55 71 -7 18 -44 65 -82 105 -38 41
-81 94 -95 119 -15 25 -56 74 -92 110 -36 35 -66 73 -66 83 0 10 -26 46 -59
80 -32 34 -72 83 -88 109 -29 46 -78 103 -218 256 -39 42 -77 91 -85 107 -8
17 -49 67 -92 111 -43 45 -78 89 -78 99 0 10 -36 54 -80 99 -44 45 -80 90 -80
99 0 10 -19 38 -41 62 -52 57 -79 59 -114 8 l-25 -38 0 -2600 0 -2601 -35 -34
c-23 -23 -35 -43 -35 -62 0 -16 -12 -41 -30 -61 -17 -20 -30 -46 -30 -60 0
-15 -13 -41 -30 -60 -17 -19 -30 -44 -30 -55 0 -11 -12 -35 -27 -53 -23 -27
-29 -46 -34 -105 -4 -58 -11 -78 -32 -104 -15 -17 -27 -40 -27 -50 0 -11 -14
-35 -30 -53 -24 -28 -30 -44 -30 -81 0 -62 -12 -82 -54 -90 -44 -8 -53 -22
-32 -45 22 -24 29 -63 13 -73 -6 -4 -26 -8 -43 -8 -37 0 -64 -27 -64 -63 0
-15 -13 -41 -30 -60 -17 -19 -30 -43 -30 -54 0 -10 -11 -34 -25 -53 -16 -22
-25 -47 -25 -71 0 -31 -5 -40 -27 -51 -16 -8 -31 -26 -36 -43 -5 -17 -20 -51
-33 -76 -13 -26 -24 -59 -24 -74 0 -16 -12 -41 -30 -62 -18 -20 -30 -45 -30
-62 0 -16 -10 -37 -24 -50 -13 -12 -26 -38 -29 -57 -3 -19 -20 -51 -36 -70
-18 -20 -31 -46 -31 -61 0 -20 -22 -50 -90 -119 -52 -52 -90 -100 -90 -111 0
-11 -11 -30 -25 -43 -14 -13 -28 -39 -31 -59 -4 -20 -17 -47 -29 -61 -13 -14
-26 -41 -30 -60 -4 -19 -18 -46 -30 -60 -13 -14 -27 -42 -30 -63 -4 -21 -17
-50 -30 -65 -12 -15 -25 -43 -29 -62 -3 -19 -17 -46 -30 -60 -18 -19 -25 -39
-28 -88 -3 -49 -9 -68 -30 -90 -21 -21 -27 -40 -30 -90 -3 -49 -9 -68 -30 -90
-23 -24 -26 -37 -30 -115 -4 -77 -7 -90 -30 -115 -23 -24 -26 -37 -30 -119 -4
-83 -7 -96 -30 -120 -24 -26 -27 -37 -30 -125 -3 -89 -5 -99 -30 -125 -24 -25
-27 -36 -30 -120 -3 -83 -6 -94 -29 -120 -24 -25 -27 -38 -31 -116 -4 -78 -7
-90 -31 -115 -19 -20 -27 -39 -27 -65 0 -44 -20 -96 -43 -116 -12 -10 -17 -30
-17 -72 0 -51 -4 -63 -30 -92 -26 -30 -30 -43 -30 -90 0 -48 -4 -61 -30 -90
-17 -20 -30 -46 -30 -60 0 -15 -13 -41 -30 -60 -26 -30 -30 -43 -30 -90 0 -48
-4 -61 -30 -90 -17 -20 -30 -46 -30 -60 0 -15 -13 -41 -30 -60 -26 -30 -30
-43 -30 -91 0 -48 -4 -61 -26 -83 -15 -15 -31 -43 -36 -62 -6 -20 -19 -46 -31
-59 -15 -16 -23 -42 -28 -87 -5 -48 -13 -72 -33 -95 -22 -26 -26 -41 -26 -90
0 -52 -4 -64 -30 -93 -25 -29 -30 -43 -30 -85 0 -40 -5 -57 -27 -83 -21 -24
-29 -47 -34 -96 -5 -48 -13 -71 -30 -89 -22 -23 -24 -37 -29 -148 -5 -115 -7
-124 -32 -155 l-28 -33 0 -287 0 -287 -25 -34 c-24 -33 -25 -40 -25 -181 l0
-148 -30 -33 c-17 -18 -30 -43 -30 -55 0 -13 -4 -23 -9 -23 -4 0 -11 -34 -14
-75 -5 -52 -15 -90 -32 -123 -19 -35 -25 -62 -25 -107 0 -49 -5 -68 -25 -95
-19 -26 -25 -46 -25 -86 0 -42 -5 -58 -30 -89 -17 -21 -30 -48 -30 -59 0 -12
-11 -37 -25 -56 -15 -21 -25 -47 -25 -68 0 -24 -9 -45 -30 -69 -17 -19 -30
-45 -30 -60 0 -15 -10 -37 -22 -51 -13 -13 -28 -42 -33 -65 -9 -35 -15 -43
-39 -45 -16 -2 -36 4 -46 13 -42 38 -110 -27 -110 -104 0 -40 -5 -54 -30 -79
-26 -28 -30 -39 -30 -90 0 -52 -4 -63 -30 -90 -27 -29 -30 -38 -30 -95 0 -52
-5 -69 -25 -97 -14 -19 -25 -45 -25 -59 0 -14 -12 -37 -26 -52 -22 -23 -27
-38 -28 -88 -2 -50 -7 -66 -28 -89 -14 -15 -29 -43 -33 -62 -5 -23 -25 -54
-60 -90 -35 -36 -55 -67 -60 -90 -5 -23 -25 -54 -60 -90 -35 -36 -55 -67 -60
-90 -4 -19 -17 -46 -30 -60 -13 -14 -26 -41 -30 -60 -4 -19 -17 -46 -30 -60
-17 -18 -24 -42 -28 -89 -4 -49 -11 -69 -30 -90 -19 -20 -26 -41 -30 -90 -4
-49 -11 -69 -30 -90 -24 -24 -25 -34 -29 -148 -3 -116 -4 -123 -30 -150 -26
-27 -27 -32 -30 -170 -3 -135 -4 -143 -28 -168 -24 -25 -25 -33 -30 -180 -5
-147 -6 -155 -30 -180 -22 -23 -26 -38 -30 -120 -5 -82 -9 -98 -30 -120 -19
-20 -26 -41 -31 -100 -5 -53 -14 -83 -28 -101 -17 -22 -21 -41 -21 -104 0 -74
-1 -79 -32 -109 -32 -31 -33 -36 -38 -126 -5 -82 -9 -97 -30 -120 -22 -23 -26
-38 -30 -120 -5 -82 -9 -98 -30 -120 -18 -19 -26 -42 -31 -89 -4 -43 -13 -73
-28 -92 -19 -24 -21 -39 -21 -142 l0 -116 -32 -34 c-31 -31 -33 -39 -38 -122
-5 -78 -9 -91 -30 -108 -23 -18 -25 -29 -30 -119 -5 -90 -8 -100 -33 -125 -26
-26 -27 -30 -27 -141 0 -112 -1 -115 -30 -152 -28 -35 -30 -44 -30 -120 0 -76
-2 -85 -30 -120 l-30 -38 0 -908 0 -909 25 -22 c40 -35 34 -72 -25 -134 -27
-29 -50 -58 -50 -63 0 -19 39 -51 62 -51 12 0 39 -12 60 -27 l39 -26 32 24
c30 22 42 24 167 27 77 1 141 -2 150 -7 26 -18 19 -92 -12 -130 -22 -26 -28
-43 -28 -82 0 -47 3 -51 65 -114 l65 -66 0 -258 c0 -253 0 -259 23 -287 19
-24 23 -43 25 -126 l4 -97 48 -45 c27 -26 54 -46 59 -46 6 0 26 13 44 30 20
18 46 30 62 30 19 0 44 17 89 60 42 40 71 60 87 60 14 0 35 7 47 16 19 13 22
24 22 78 0 56 3 65 30 91 29 28 30 32 30 116 0 64 4 90 15 99 20 17 33 5 45
-41 9 -33 15 -40 33 -37 17 2 23 11 27 44 3 22 15 53 27 70 15 21 20 44 20 88
0 59 10 76 44 76 9 0 42 -26 73 -58 l55 -57 202 0 201 0 20 25 c20 25 20 25
239 30 l219 5 25 28 26 27 144 0 144 0 34 30 35 30 149 0 149 0 29 30 29 31
106 -3 c97 -3 105 -5 108 -23 2 -12 -6 -32 -18 -45 -11 -12 -20 -26 -20 -30 0
-4 18 -24 41 -44 l40 -37 289 3 289 3 28 27 c27 25 34 27 150 30 119 3 124 4
148 31 25 27 28 27 145 27 120 0 120 0 152 30 31 30 31 30 150 30 114 0 120 1
144 25 31 31 44 32 39 3 -3 -13 -5 -1793 -5 -3957 -1 -2589 -4 -3950 -11
-3979 -5 -25 -21 -58 -34 -74 -20 -24 -25 -41 -25 -84 0 -50 -3 -58 -41 -99
-27 -30 -52 -47 -76 -51 -41 -8 -63 -28 -63 -58 0 -13 -13 -40 -30 -61 -25
-31 -30 -47 -30 -90 0 -43 -5 -59 -30 -90 l-30 -38 0 -172 0 -172 -30 -38
c-30 -38 -30 -38 -30 -174 0 -100 -4 -143 -15 -161 -8 -14 -17 -31 -21 -38 -4
-7 15 -35 46 -68 49 -51 52 -58 47 -94 -3 -22 -14 -51 -26 -66 -12 -15 -21
-41 -21 -58 0 -35 -7 -46 -35 -62 -11 -6 -27 -31 -35 -57 -8 -25 -24 -55 -35
-67 -13 -14 -21 -43 -26 -86 -5 -46 -13 -72 -28 -88 -12 -13 -27 -41 -33 -62
-5 -21 -19 -49 -29 -63 -11 -13 -19 -36 -19 -50 0 -17 -11 -38 -30 -56 -17
-16 -35 -47 -41 -69 -6 -22 -22 -53 -35 -69 -18 -22 -24 -40 -24 -77 0 -40 -5
-54 -26 -73 -17 -16 -29 -42 -35 -72 -5 -26 -20 -60 -34 -77 -14 -16 -25 -38
-25 -47 0 -10 -13 -32 -30 -49 -26 -28 -30 -39 -30 -88 0 -48 -4 -61 -30 -91
-17 -19 -30 -45 -30 -60 0 -15 -11 -39 -26 -54 -16 -17 -30 -46 -35 -75 -5
-26 -16 -55 -25 -65 -10 -12 -17 -40 -18 -78 -2 -51 -7 -65 -34 -96 -19 -21
-32 -47 -32 -62 0 -15 -11 -39 -26 -54 -14 -14 -28 -42 -31 -60 -2 -19 -15
-45 -28 -59 -12 -14 -26 -41 -30 -60 -4 -19 -17 -46 -30 -60 -13 -14 -26 -41
-30 -60 -4 -19 -17 -46 -30 -60 -13 -14 -26 -41 -30 -60 -4 -19 -17 -46 -30
-60 -17 -19 -24 -40 -27 -88 -3 -50 -9 -67 -30 -90 -15 -15 -30 -44 -33 -65
-4 -20 -11 -40 -16 -43 -32 -20 15 -78 77 -96 21 -5 52 -21 67 -34 38 -32 115
-34 142 -4 12 13 29 20 44 18 26 -3 26 -4 29 -108 2 -94 1 -107 -19 -134 -19
-25 -22 -42 -22 -130 1 -56 4 -109 8 -118 6 -16 29 -28 64 -34 7 -2 25 -14 40
-28 l27 -26 326 0 327 -1 32 -30 c17 -16 39 -29 48 -30 27 -1 52 -7 59 -14 4
-4 9 -74 12 -157 5 -142 6 -151 29 -169 13 -10 40 -19 60 -20 60 -1 68 -5 125
-63 30 -31 63 -56 73 -57 38 -1 54 -8 71 -29 11 -13 37 -25 67 -31 64 -12 102
-48 113 -110 7 -38 20 -58 73 -111 35 -35 73 -67 83 -71 37 -14 126 67 126
116 0 22 21 50 92 125 51 54 102 101 114 106 15 6 31 4 54 -7 l33 -17 33 36
c22 23 34 45 34 64 0 23 20 48 103 129 l102 101 74 0 73 0 78 -76 c77 -74 79
-76 102 -60 33 23 53 20 93 -15 34 -30 36 -31 55 -14 10 9 21 34 25 54 5 28
20 52 61 92 47 46 54 59 54 91 0 33 8 47 60 101 55 57 60 65 60 108 0 37 6 52
29 77 17 17 35 49 41 71 6 22 19 45 29 50 14 8 19 26 24 76 4 53 10 72 30 93
13 15 27 45 30 66 4 21 16 50 28 63 16 16 25 42 30 84 4 34 12 66 19 73 19 19
98 11 131 -13 30 -22 31 -22 51 -4 63 55 218 218 218 229 0 7 14 28 30 46 18
19 30 43 30 60 0 16 12 40 30 60 26 28 30 40 30 91 0 52 3 62 30 89 26 26 30
36 30 87 0 50 4 62 30 91 26 29 30 41 30 90 0 49 4 61 30 90 17 19 30 45 30
60 0 15 13 41 30 60 17 18 30 45 30 59 1 14 14 42 30 61 25 29 30 43 30 90 1
46 6 61 30 90 26 29 30 43 30 90 0 49 4 60 30 85 27 26 30 35 30 89 1 53 5 66
30 96 25 29 30 43 30 90 1 46 6 61 30 90 25 29 30 43 30 90 0 48 4 59 30 83
27 26 30 35 30 91 0 56 3 65 30 91 26 25 30 36 30 85 0 49 4 60 30 85 21 20
30 38 30 60 0 24 12 43 60 90 50 49 60 65 60 93 0 24 9 45 30 69 16 18 30 44
30 56 0 13 14 36 30 52 17 16 30 32 30 37 0 4 -13 23 -30 41 l-30 35 0 138 0
139 29 27 c22 21 29 39 33 78 3 33 13 59 26 73 13 14 25 43 29 73 4 35 15 57
35 77 20 20 28 38 28 63 0 28 10 45 50 88 41 43 50 59 50 89 0 26 8 46 30 70
17 19 30 43 30 54 0 10 14 30 30 45 22 19 30 35 30 60 0 47 15 94 39 119 15
17 21 36 21 72 0 52 13 85 40 104 12 9 19 32 23 78 4 53 10 72 30 93 19 21 26
41 30 91 4 49 11 69 30 90 19 20 26 41 30 91 4 52 10 69 30 85 13 11 44 49 70
85 25 36 60 79 77 95 18 17 50 57 73 90 22 33 67 89 99 124 33 35 65 75 71 90
6 14 44 62 84 105 40 44 73 85 73 93 0 7 34 50 76 94 41 45 81 93 87 108 6 14
38 55 70 90 33 35 65 78 72 95 8 17 28 45 45 61 18 17 54 55 80 86 34 41 51
54 61 48 20 -13 26 -11 49 13 11 12 20 36 20 52 1 25 19 51 90 129 50 53 90
104 90 113 0 9 14 32 30 51 17 18 30 43 30 54 0 11 26 48 59 83 32 35 62 74
66 87 4 13 40 58 80 99 40 41 76 86 80 100 4 14 38 57 76 96 38 40 69 79 69
89 0 9 36 54 80 100 44 46 80 87 80 92 1 4 34 44 75 88 41 44 75 86 75 92 0 7
32 48 71 90 39 43 78 92 86 108 9 17 43 59 75 94 33 35 65 75 71 90 6 14 42
59 80 99 37 40 73 85 80 100 6 15 44 62 84 105 40 43 73 85 73 93 0 8 34 51
75 95 41 45 75 88 75 96 0 9 31 47 69 87 38 39 77 87 86 106 10 19 51 71 92
114 40 44 73 85 73 92 0 6 32 47 70 89 39 42 70 85 70 94 0 9 31 48 70 86 38
37 74 82 81 99 7 17 43 63 81 102 37 40 68 80 68 89 0 9 31 49 68 89 37 39 81
89 97 111 17 22 55 66 85 98 30 32 60 68 65 81 6 13 41 58 80 100 38 43 75 90
81 104 7 15 38 54 69 87 32 33 63 72 69 86 6 14 42 59 80 100 37 41 73 85 79
99 6 14 42 59 81 100 38 41 74 86 79 100 6 14 38 54 70 89 33 35 65 77 71 92
6 15 43 61 83 102 39 41 74 85 78 98 4 13 39 57 77 97 38 40 74 85 80 100 7
15 44 61 82 103 91 98 206 234 230 274 10 16 43 56 73 89 30 32 66 77 80 100
15 22 51 67 81 99 31 32 67 77 81 102 14 24 52 71 84 104 31 34 57 67 57 74 0
7 31 47 68 88 37 41 79 92 92 114 14 22 53 70 87 107 35 37 63 72 63 79 0 6
29 44 65 84 36 39 71 87 79 106 8 19 45 66 82 104 37 39 72 82 78 97 7 15 44
61 84 102 40 41 72 82 72 91 0 8 30 47 66 87 37 40 71 84 77 98 6 14 46 62 89
107 43 46 78 90 78 99 0 9 36 54 80 100 44 46 80 90 80 98 0 8 15 31 34 50 30
32 39 36 84 36 42 0 55 5 82 30 l32 30 178 0 178 0 30 30 30 30 179 0 179 0
29 30 29 30 169 0 c171 0 194 4 230 41 10 11 27 19 38 19 33 0 60 19 126 89
47 48 65 76 71 106 5 29 13 41 27 43 52 8 68 15 90 38 25 27 65 26 65 -2 0 -8
31 -47 68 -86 37 -40 73 -85 79 -100 7 -15 43 -60 81 -100 38 -40 73 -84 77
-97 4 -13 39 -58 79 -100 39 -42 77 -87 83 -101 6 -14 40 -58 77 -98 36 -40
66 -78 66 -86 0 -8 33 -50 74 -93 40 -43 76 -87 80 -98 3 -12 38 -54 76 -95
39 -41 76 -88 84 -105 7 -16 39 -57 70 -90 31 -33 66 -78 78 -100 11 -22 49
-68 84 -103 35 -35 64 -66 64 -69 0 -11 67 -99 107 -142 25 -25 50 -60 57 -76
7 -17 40 -57 72 -90 32 -33 67 -76 77 -96 10 -19 47 -66 83 -103 35 -37 64
-71 64 -75 0 -4 35 -46 78 -92 43 -46 83 -96 89 -111 7 -15 43 -60 81 -100 38
-40 73 -83 76 -96 4 -12 38 -55 74 -95 37 -39 78 -90 91 -112 13 -22 35 -51
47 -65 l24 -26 -173 -171 c-99 -98 -183 -173 -197 -176 -14 -4 -47 -29 -74
-56 l-49 -50 33 -37 c29 -34 32 -42 27 -87 -4 -49 -7 -53 -134 -178 -115 -114
-133 -129 -163 -129 -31 0 -56 -22 -287 -252 -218 -217 -253 -257 -253 -282 0
-25 -21 -51 -120 -151 -98 -100 -120 -127 -120 -151 0 -24 -24 -54 -145 -174
-122 -122 -145 -150 -145 -175 0 -25 -60 -90 -466 -496 -270 -270 -464 -472
-460 -478 4 -6 25 -11 46 -11 29 0 48 8 73 30 20 18 46 30 62 30 19 0 44 17
89 60 44 42 70 60 89 60 15 0 41 13 60 30 22 19 46 30 64 30 19 0 39 10 58 30
20 21 38 30 60 30 22 0 40 9 60 30 20 21 38 30 60 30 22 0 40 9 60 30 20 21
38 30 60 30 22 0 40 9 60 30 20 21 38 30 61 30 25 0 41 10 78 50 51 54 74 70
104 70 11 0 57 36 103 80 66 63 90 80 113 80 24 0 49 19 131 100 67 66 110
100 124 100 13 0 45 21 75 50 42 40 60 50 87 50 30 0 46 12 124 90 73 73 95
90 119 90 24 0 49 19 131 100 56 55 108 100 115 100 7 0 41 27 76 60 51 50 68
60 97 60 21 0 41 7 52 20 10 11 31 20 47 20 16 0 49 11 74 24 64 34 84 26 84
-33 -1 -36 -7 -53 -30 -81 -17 -19 -30 -46 -30 -60 0 -20 -105 -130 -513 -538
-441 -441 -516 -512 -541 -512 -24 0 -63 -34 -240 -209 -130 -128 -221 -211
-237 -215 -18 -4 -188 -167 -487 -465 -399 -400 -460 -465 -465 -496 -5 -28
-25 -55 -91 -121 -46 -47 -87 -98 -91 -112 -3 -15 -30 -52 -59 -82 -43 -44
-55 -63 -59 -98 -4 -35 -15 -52 -60 -97 -40 -40 -56 -64 -60 -92 -5 -25 -20
-51 -52 -83 -37 -38 -46 -53 -43 -76 2 -21 9 -30 25 -32 18 -3 50 23 138 112
91 91 124 118 153 125 28 6 59 29 116 84 44 44 86 77 98 77 32 0 58 19 139
101 59 60 84 79 105 79 20 0 49 22 118 90 61 60 100 90 115 90 32 0 55 15 110
70 29 31 57 50 70 50 34 0 57 16 124 87 74 77 91 85 136 67 41 -17 34 -18 61
6 13 11 34 20 48 20 19 0 56 31 147 120 100 99 126 120 151 120 24 0 46 17
119 90 89 90 90 91 135 88 41 -3 45 -5 48 -31 3 -26 -19 -51 -194 -225 -174
-174 -198 -202 -205 -238 -10 -54 -119 -163 -182 -182 -34 -10 -77 -47 -225
-195 -161 -161 -184 -188 -193 -226 -5 -24 -19 -51 -31 -61 -17 -13 -23 -33
-28 -83 -6 -50 -14 -73 -34 -97 -14 -17 -26 -43 -26 -56 0 -16 -21 -47 -60
-89 -33 -35 -60 -69 -60 -74 0 -4 7 -14 15 -21 12 -10 20 -7 46 14 17 14 40
26 52 26 13 0 45 23 78 56 45 44 64 57 97 61 33 4 51 16 92 59 39 41 61 55 89
60 28 5 50 19 85 55 26 27 63 56 84 64 20 9 62 38 94 66 33 28 71 52 90 55 21
4 53 26 88 59 41 39 65 54 93 58 31 5 53 21 118 86 63 65 85 81 109 81 22 0
43 14 90 60 48 47 67 60 91 60 24 0 45 13 93 60 56 54 67 60 104 60 30 0 44 5
51 19 13 23 80 91 91 91 5 0 12 -5 15 -11 7 -10 -79 -99 -97 -99 -9 0 -38 -60
-38 -79 0 -6 11 -13 25 -17 21 -5 35 4 86 50 39 36 69 56 85 56 15 0 45 19 82
53 43 39 69 56 98 60 30 5 52 19 94 62 40 41 62 55 83 55 20 0 45 17 96 64 41
39 80 66 100 71 18 4 35 13 37 20 10 24 96 85 121 85 15 0 47 22 88 60 50 46
71 60 95 60 25 0 44 13 91 60 44 44 67 60 87 60 21 0 43 16 87 60 44 44 71 64
102 71 23 6 49 20 59 30 12 14 31 19 65 19 75 0 81 -11 78 -151 -4 -183 15
-190 146 -59 74 74 95 90 120 90 25 0 46 16 120 90 74 74 95 90 120 90 27 0
57 26 224 194 l192 194 20 -21 c10 -11 19 -27 19 -34 0 -7 31 -46 69 -85 37
-40 78 -91 89 -113 11 -22 39 -58 62 -80 23 -22 60 -67 83 -100 22 -33 67 -88
99 -123 32 -34 58 -69 58 -78 0 -8 35 -51 78 -97 43 -45 83 -94 89 -108 6 -14
43 -60 82 -102 39 -42 71 -83 71 -90 0 -7 26 -41 58 -77 33 -36 70 -83 84
-105 14 -22 55 -71 90 -110 36 -38 68 -79 72 -90 3 -11 40 -56 81 -100 41 -44
74 -84 75 -89 0 -5 36 -47 80 -92 44 -45 80 -89 80 -99 0 -9 26 -44 58 -78 31
-34 66 -78 76 -97 10 -19 52 -69 92 -111 41 -42 74 -84 74 -94 0 -9 36 -54 80
-100 44 -46 80 -91 80 -99 0 -9 29 -46 64 -83 35 -38 73 -86 84 -108 11 -22
46 -65 77 -95 31 -30 66 -73 77 -95 11 -22 51 -72 89 -111 38 -40 69 -79 69
-88 0 -9 31 -49 68 -88 37 -40 73 -85 79 -99 6 -15 46 -63 87 -108 42 -44 76
-87 76 -95 0 -8 32 -48 72 -91 39 -42 78 -90 87 -106 9 -16 41 -57 71 -91 30
-34 60 -72 65 -85 11 -25 128 -161 243 -283 39 -42 72 -85 72 -94 0 -10 36
-55 80 -100 44 -45 80 -90 80 -100 0 -10 31 -50 68 -90 38 -39 74 -85 81 -102
7 -17 43 -62 81 -99 39 -38 70 -78 70 -88 0 -11 36 -56 80 -101 44 -45 80 -90
80 -99 0 -9 31 -50 69 -89 37 -40 72 -84 76 -97 4 -13 40 -58 80 -100 40 -42
76 -87 80 -100 4 -12 37 -55 74 -95 37 -39 78 -89 91 -111 13 -22 50 -68 82
-102 32 -34 58 -68 58 -75 0 -8 33 -50 74 -94 40 -43 76 -89 80 -100 4 -12 45
-63 91 -114 47 -50 85 -98 85 -105 0 -7 29 -45 65 -84 36 -39 65 -77 65 -84 0
-7 34 -49 75 -92 41 -44 74 -84 75 -89 0 -4 33 -43 74 -85 40 -42 83 -97 96
-123 12 -25 42 -66 65 -90 23 -24 56 -63 72 -88 17 -25 57 -70 88 -100 31 -30
64 -73 74 -95 10 -22 48 -69 85 -105 36 -35 66 -72 66 -82 0 -10 31 -51 68
-90 37 -40 73 -85 79 -100 7 -15 43 -60 80 -100 38 -40 74 -85 80 -100 7 -15
43 -60 81 -100 38 -40 73 -84 77 -97 4 -13 39 -58 79 -100 39 -42 78 -89 86
-106 8 -16 50 -66 93 -111 42 -45 77 -89 77 -98 0 -10 26 -45 58 -79 32 -34
63 -74 69 -89 7 -14 42 -58 79 -97 37 -39 74 -86 84 -104 19 -35 105 -137 218
-256 39 -43 72 -85 72 -94 0 -10 36 -55 80 -101 44 -46 80 -90 80 -98 0 -20
68 -98 86 -98 12 0 14 1138 14 8373 l0 8372 65 61 c44 41 65 68 65 84 0 15 27
51 80 106 69 72 80 88 80 119 0 25 8 44 30 67 19 19 30 41 30 60 0 18 11 40
30 60 19 19 30 41 30 60 0 18 11 40 30 60 19 19 30 41 30 60 0 18 11 40 30 60
19 19 30 41 30 59 0 18 11 40 30 59 19 19 30 41 30 59 0 18 11 40 30 59 19 20
30 42 30 60 0 22 15 44 60 90 46 46 60 68 60 90 0 23 22 51 120 149 83 84 120
128 120 143 0 15 22 47 60 86 44 46 60 70 60 90 0 21 20 49 90 120 70 71 90
97 90 120 0 22 20 48 90 120 69 70 90 98 90 119 0 16 12 41 30 62 18 20 30 45
30 61 0 20 14 41 49 76 39 38 50 57 55 91 6 34 18 54 61 96 37 38 55 65 60 91
5 26 23 53 60 90 37 38 54 64 59 90 4 21 18 49 31 62 13 13 27 37 31 53 3 15
30 53 59 83 41 43 54 64 59 97 4 25 16 52 31 67 13 13 27 37 31 53 4 15 22 45
40 66 l34 37 0 118 c0 106 2 121 20 137 18 16 20 31 20 136 0 117 0 119 30
152 l30 35 0 205 0 206 30 34 30 35 0 165 c0 164 0 166 -26 196 -25 30 -26 37
-30 184 -3 83 -9 156 -14 161 -17 17 -28 -6 -32 -70 -3 -48 -10 -68 -31 -94
-22 -25 -27 -42 -27 -84 0 -44 -5 -60 -30 -91 -16 -21 -30 -49 -30 -63 0 -33
-69 -102 -103 -102 -25 0 -37 16 -37 52 0 11 -25 45 -55 77 -44 46 -57 67 -64
106 -5 26 -16 52 -25 57 -9 5 -16 22 -16 37 0 28 -38 89 -90 146 -15 17 -30
42 -34 56 -3 15 -17 37 -31 50 -24 24 -25 26 -25 189 l0 166 63 61 c40 39 74
63 95 68 18 4 46 18 63 32 28 24 38 26 114 24 81 -1 86 0 120 30 l35 31 230
-1 c278 -2 301 5 245 71 -14 16 -25 36 -25 45 0 8 -24 40 -54 71 -36 38 -58
71 -65 99 -12 45 -34 63 -73 63 -17 0 -64 41 -167 144 -118 118 -151 146 -180
151 -30 5 -68 38 -223 193 -172 171 -188 190 -194 229 -3 23 -15 52 -25 64
-16 18 -19 38 -19 122 0 96 1 100 30 134 17 18 30 44 30 56 0 29 18 47 47 47
13 0 40 16 62 35 33 30 45 35 88 35 41 0 57 6 88 30 l38 30 174 0 175 0 34 34
c19 19 34 40 34 47 0 7 -69 82 -153 166 -124 125 -158 153 -181 153 -22 0 -49
20 -121 90 -60 58 -101 90 -115 90 -14 0 -50 27 -96 72 -66 63 -74 75 -74 108
0 21 6 42 13 48 6 5 51 13 100 17 81 7 87 9 87 30 0 18 -7 24 -35 28 -20 3
-49 17 -66 31 -17 14 -41 26 -53 26 -12 0 -35 14 -51 30 -20 21 -38 30 -61 30
-26 0 -47 12 -95 55 -43 38 -70 55 -89 55 -15 0 -35 9 -45 20 -10 11 -37 25
-59 32 -23 6 -53 22 -68 34 -15 12 -42 26 -60 29 -18 4 -45 18 -60 30 -15 13
-42 27 -60 30 -18 4 -45 18 -60 30 -15 13 -42 27 -60 30 -18 4 -45 18 -60 30
-15 13 -42 27 -60 30 -18 4 -45 18 -60 30 -15 13 -42 26 -60 30 -18 4 -44 17
-58 30 -14 13 -41 26 -60 30 -19 4 -46 17 -60 30 -14 13 -41 26 -60 30 -19 4
-46 17 -60 30 -14 13 -41 26 -60 30 -19 4 -46 17 -60 30 -14 13 -41 26 -60 30
-19 4 -46 18 -60 30 -14 13 -41 26 -60 30 -19 4 -51 21 -71 38 l-37 32 -3
2900 c-2 1595 0 2906 4 2913 6 9 73 12 278 12 l271 0 30 30 30 30 148 0 149 0
61 60 60 59 269 3 270 3 28 27 28 27 183 3 c182 3 184 3 204 28 19 24 27 25
149 30 l128 5 36 35 c45 44 42 63 -10 70 -36 4 -40 8 -43 35 -3 23 4 36 33 62
l37 33 128 0 c126 0 128 0 165 -30 32 -25 47 -30 93 -30 44 0 64 -6 93 -26 35
-24 43 -25 137 -22 55 2 98 0 95 -4 -2 -5 28 -8 67 -8 68 0 71 1 68 23 -3 20
-9 22 -65 23 -54 1 -66 4 -98 32 -19 18 -46 32 -60 32 -45 0 -55 23 -55 126
l0 95 72 74 71 75 122 0 121 0 39 40 39 40 -36 38 c-20 20 -41 49 -47 64 -17
45 4 56 109 56 87 0 93 -1 124 -29 30 -26 41 -29 103 -29 63 0 74 3 108 30 24
19 49 30 69 30 28 0 48 16 139 109 92 92 107 113 107 140 0 21 7 39 20 49 12
10 23 35 27 57 3 23 18 54 35 73 43 51 39 100 -13 157 -28 30 -55 49 -82 56
-23 6 -54 21 -69 34 -15 13 -41 26 -58 30 -17 4 -34 14 -37 23 -16 46 -25 49
-183 46 -118 -1 -152 1 -161 12 -9 11 -8 18 1 29 11 14 43 15 232 10 182 -4
223 -3 247 10 32 16 77 72 67 82 -3 4 -101 7 -216 8 l-210 1 -27 26 c-27 26
-32 26 -181 30 -150 3 -154 4 -174 28 -19 24 -27 25 -149 30 -120 5 -129 7
-149 30 -19 22 -32 26 -119 31 l-98 6 -39 42 c-21 24 -40 38 -42 32 -6 -18
-28 -13 -59 13 -20 17 -45 25 -92 29 -49 4 -69 11 -90 30 -14 14 -43 28 -63
32 -22 4 -47 19 -62 36 -15 17 -36 29 -50 29 -14 0 -38 11 -54 25 -29 25 -33
25 -206 25 l-175 0 -26 -27 c-24 -27 -29 -28 -148 -31 -116 -4 -123 -5 -150
-30 l-28 -27 -400 0 c-445 0 -419 -4 -419 69 0 27 7 47 22 63 l22 23 -39 40
-39 40 -370 0 -370 0 -29 -27 c-26 -26 -36 -28 -120 -31 -84 -3 -95 -6 -120
-30 -27 -26 -34 -27 -150 -30 -116 -3 -123 -5 -150 -30 -27 -26 -34 -27 -150
-30 -116 -3 -123 -5 -150 -30 -25 -24 -36 -27 -102 -27 -66 0 -77 3 -102 27
-25 23 -37 27 -115 30 -75 3 -90 6 -112 27 -18 17 -44 27 -87 33 -76 10 -79
12 -79 53 0 37 12 45 71 45 28 0 42 6 51 20 7 11 23 20 35 20 24 0 37 29 31
71 -2 17 -13 25 -38 32 -19 5 -46 19 -61 33 -24 23 -29 24 -191 24 l-165 0
-38 -30 c-36 -28 -43 -30 -128 -30 l-90 0 -91 89 -91 90 -207 3 -207 3 -28 27
-29 28 -663 2 -663 3 -20 25 c-18 23 -29 26 -114 30 -81 5 -96 9 -119 30 -15
14 -45 29 -68 35 -37 9 -42 14 -52 50 -15 60 -21 65 -77 65 -42 0 -56 -5 -85
-30 l-35 -31 -236 2 c-269 2 -308 5 -316 26 -10 26 13 53 45 53 24 0 30 4 27
18 -3 16 -31 17 -365 22 l-362 5 -29 28 c-28 27 -36 29 -158 37 -71 5 -145 14
-164 20 -19 5 -68 10 -108 10 -40 0 -83 5 -95 12 -16 9 -116 12 -354 12 l-332
1 -28 27 -29 27 -535 3 -535 3 -33 28 c-29 24 -40 27 -111 27 -71 0 -82 -3
-111 -27 -29 -24 -43 -28 -125 -33 -51 -3 -96 -8 -100 -13 -4 -4 -10 -26 -13
-50 -5 -34 -10 -43 -29 -45 -15 -2 -34 5 -49 20 -21 20 -38 24 -118 28 l-94 6
-60 57 -60 57 -161 0 -161 0 -58 -55z m-1867 -771 c20 -8 21 -44 1 -44 -12 0
-35 28 -35 44 0 8 14 8 34 0z m4488 -2167 c24 -19 60 -36 80 -40 20 -3 71 -22
113 -42 76 -37 77 -38 71 -70 -6 -29 -2 -37 39 -74 58 -53 106 -57 158 -11
l35 30 159 0 160 0 38 -30 c31 -25 47 -30 90 -30 43 0 59 -5 90 -30 21 -16 49
-30 63 -30 17 0 48 -23 101 -75 43 -41 82 -75 88 -75 6 0 16 7 23 15 11 13 60
15 331 15 l319 0 48 -46 c78 -77 69 -74 250 -74 l164 0 35 -30 34 -30 266 0
265 0 35 -30 34 -30 291 0 292 0 29 -27 28 -28 422 -5 c421 -5 422 -5 460 -28
20 -13 37 -27 37 -31 0 -4 -18 -25 -41 -46 -22 -22 -61 -67 -87 -100 -25 -33
-68 -84 -96 -113 -28 -30 -54 -63 -59 -74 -4 -12 -35 -50 -68 -86 -33 -35 -66
-76 -72 -91 -6 -14 -42 -60 -81 -101 -38 -41 -74 -86 -80 -100 -6 -14 -43 -61
-83 -104 -40 -44 -73 -86 -73 -93 0 -8 -30 -45 -66 -84 -36 -38 -71 -84 -79
-102 -7 -17 -43 -61 -79 -96 -36 -36 -70 -78 -77 -95 -7 -17 -45 -65 -84 -106
-40 -41 -76 -86 -80 -100 -4 -14 -38 -57 -76 -96 -38 -40 -69 -80 -69 -91 0
-10 -33 -52 -74 -92 -41 -41 -77 -86 -81 -100 -4 -14 -38 -58 -76 -98 -38 -40
-69 -80 -69 -89 0 -9 -31 -48 -69 -88 -38 -39 -78 -89 -89 -111 -11 -22 -46
-65 -77 -95 -31 -30 -67 -75 -80 -100 -13 -25 -44 -65 -70 -90 -26 -25 -65
-69 -87 -98 -21 -29 -59 -73 -84 -98 -25 -24 -51 -58 -57 -73 -7 -16 -43 -62
-81 -102 -37 -40 -73 -84 -79 -98 -6 -14 -42 -60 -81 -101 -38 -41 -74 -86
-80 -100 -5 -14 -41 -58 -78 -99 -38 -40 -71 -83 -74 -95 -12 -49 -23 -51
-424 -54 l-375 -3 -28 -27 -28 -27 -332 -3 -332 -3 -28 -27 -28 -27 -262 -3
-262 -3 -28 -27 -28 -27 -254 -5 -253 -5 -27 -25 c-26 -24 -31 -25 -198 -28
-171 -3 -172 -4 -200 -30 l-28 -27 -180 -1 -180 -1 -30 -29 -30 -29 -149 0
-150 -1 -30 -29 c-30 -29 -32 -29 -150 -31 -82 -1 -125 -5 -135 -14 -25 -21
-64 -21 -75 0 -14 26 1 131 20 140 70 32 74 36 85 77 5 23 20 51 32 62 11 11
24 38 28 61 4 24 15 46 28 55 16 11 23 30 28 77 5 54 11 68 42 100 33 35 35
41 34 98 -1 50 2 62 19 75 15 10 23 29 26 60 4 31 13 51 29 64 19 15 24 32 29
89 6 58 11 75 30 90 20 16 25 33 30 89 6 56 11 74 33 95 23 23 27 36 27 81 0
46 4 57 30 82 27 26 30 35 30 90 0 55 3 64 30 90 27 26 30 35 30 90 0 55 3 64
30 90 27 26 30 35 30 90 0 55 3 64 30 90 27 26 30 35 30 90 0 55 3 64 30 90
27 26 30 35 30 90 0 55 3 64 30 90 29 28 30 32 30 120 0 88 1 92 30 120 29 28
30 32 30 120 0 88 1 92 30 120 l30 29 0 178 0 179 90 91 c68 69 90 98 90 118
0 14 10 40 23 57 21 28 23 41 21 141 -1 96 -4 114 -23 137 -20 27 -21 37 -21
274 l0 247 30 29 30 29 0 150 0 150 42 43 c41 42 44 43 106 43 57 0 68 -3 99
-30 l34 -30 239 0 c146 0 240 4 240 10 0 5 -5 21 -12 35 -11 26 -12 26 -124
24 -62 0 -117 2 -123 6 -15 9 -14 32 2 38 6 3 128 6 269 6 l256 1 44 -33z
m-1270 -44 c33 -29 23 -66 -32 -117 -27 -25 -56 -46 -64 -46 -50 0 -60 33 -21
70 15 14 25 35 25 51 0 52 53 77 92 42z m-414 -66 c2 -11 -6 -29 -17 -41 -12
-13 -24 -40 -28 -60 -5 -31 -10 -36 -27 -34 -18 3 -21 11 -24 62 -2 45 1 63
14 78 23 25 77 21 82 -5z m-13795 -4416 c31 -33 57 -64 57 -69 0 -6 36 -50 80
-97 44 -47 80 -93 80 -101 0 -8 35 -51 78 -97 43 -45 83 -95 90 -111 12 -28
60 -85 205 -242 37 -40 76 -93 86 -116 11 -24 49 -74 85 -113 37 -38 73 -83
81 -100 7 -16 46 -64 84 -105 39 -41 71 -78 71 -83 0 -5 31 -42 69 -83 38 -41
72 -87 76 -102 3 -15 39 -62 80 -105 41 -43 75 -82 75 -88 0 -6 36 -48 80 -94
44 -46 80 -91 80 -100 0 -10 36 -54 80 -99 44 -45 80 -90 80 -100 0 -10 31
-50 68 -90 38 -39 74 -85 81 -102 7 -17 41 -59 77 -95 36 -35 71 -78 79 -95 7
-18 44 -65 82 -105 38 -41 74 -86 80 -100 6 -15 38 -55 71 -90 33 -35 62 -73
66 -85 3 -11 38 -54 77 -95 38 -41 76 -88 83 -104 7 -17 41 -59 75 -94 34 -35
68 -77 75 -95 8 -17 44 -61 80 -99 36 -37 68 -78 72 -92 3 -13 39 -57 80 -99
41 -41 74 -80 74 -86 0 -6 35 -47 79 -93 43 -45 82 -93 86 -106 4 -13 40 -58
79 -100 48 -50 77 -90 86 -119 13 -40 12 -43 -11 -68 -13 -14 -29 -44 -34 -67
-10 -37 -15 -42 -50 -52 -56 -14 -62 -20 -70 -62 -3 -21 -17 -49 -30 -63 -12
-14 -26 -41 -30 -60 -4 -19 -17 -46 -30 -60 -17 -18 -24 -42 -28 -88 -4 -48
-11 -70 -29 -89 -12 -13 -28 -43 -33 -66 -10 -37 -15 -42 -52 -52 -23 -5 -46
-14 -52 -20 -5 -5 -11 -65 -13 -132 -3 -117 -4 -123 -30 -150 l-28 -29 0 -161
c0 -134 3 -164 16 -177 23 -24 47 -19 76 14 19 22 35 30 59 30 37 0 69 24 69
51 0 11 16 39 35 65 19 25 35 52 35 61 0 8 11 28 24 43 13 16 26 47 30 70 6
35 10 41 29 38 19 -3 22 -10 25 -61 2 -32 -2 -65 -8 -72 -8 -9 -7 -14 5 -19
10 -3 15 -18 15 -42 0 -28 -5 -37 -20 -41 -21 -6 -25 -17 -34 -98 -4 -32 -14
-58 -30 -75 -18 -19 -25 -40 -29 -89 -4 -49 -11 -69 -30 -90 -22 -23 -25 -37
-29 -118 -4 -83 -7 -96 -30 -120 -24 -25 -27 -37 -30 -120 -3 -83 -5 -94 -30
-120 -24 -25 -27 -36 -30 -120 -3 -83 -6 -94 -29 -120 -22 -23 -28 -40 -31
-91 -3 -49 -9 -68 -30 -90 -21 -21 -27 -40 -30 -90 -3 -49 -9 -68 -30 -90 -21
-21 -27 -40 -30 -90 -3 -49 -9 -68 -30 -90 -20 -21 -27 -40 -30 -88 -3 -48
-10 -68 -30 -92 -14 -17 -28 -46 -32 -65 -3 -19 -15 -42 -26 -52 -11 -10 -25
-37 -31 -59 -6 -23 -20 -51 -32 -64 -15 -16 -23 -42 -28 -87 -5 -48 -13 -72
-33 -95 -23 -28 -26 -40 -26 -107 l0 -74 -56 -59 c-45 -47 -58 -69 -65 -106
-5 -25 -20 -59 -34 -76 -18 -21 -25 -41 -25 -72 0 -33 -7 -52 -30 -81 -29 -37
-30 -41 -30 -146 l0 -109 39 -41 c28 -30 50 -44 78 -48 47 -8 55 -35 24 -85
-14 -22 -21 -50 -21 -83 0 -41 -6 -57 -30 -88 -25 -31 -30 -47 -30 -90 0 -43
-5 -59 -30 -90 -25 -31 -30 -47 -30 -90 0 -43 -5 -59 -29 -89 -16 -20 -32 -51
-35 -70 -4 -18 -15 -41 -26 -51 -11 -10 -25 -36 -31 -59 -6 -22 -19 -51 -30
-64 -15 -20 -19 -41 -19 -111 0 -84 -1 -88 -30 -116 -17 -16 -35 -47 -41 -70
-6 -22 -20 -50 -32 -63 -15 -16 -23 -42 -28 -88 -5 -48 -13 -71 -30 -90 -17
-18 -25 -41 -30 -88 -4 -43 -13 -73 -28 -92 -31 -39 -29 -107 5 -147 22 -26
25 -38 22 -78 -3 -27 -14 -58 -26 -74 -17 -21 -22 -42 -22 -83 0 -48 -4 -59
-35 -93 -30 -33 -35 -46 -35 -86 0 -44 -4 -51 -57 -105 -57 -58 -57 -58 -63
-132 -5 -54 -12 -81 -28 -101 -19 -24 -22 -39 -21 -112 2 -79 0 -85 -26 -113
-16 -16 -31 -46 -34 -67 -7 -42 -23 -50 -108 -52 -40 -1 -58 -7 -82 -26 -21
-19 -47 -28 -95 -34 -46 -5 -73 -14 -89 -29 -16 -15 -41 -24 -78 -28 -40 -4
-61 -12 -82 -31 -25 -25 -34 -27 -117 -28 -85 -2 -92 -4 -120 -30 -25 -24 -38
-28 -90 -30 -51 -1 -65 -6 -89 -29 -25 -24 -37 -28 -85 -27 -49 0 -61 -4 -91
-31 -34 -29 -39 -30 -120 -29 -81 1 -85 0 -119 -30 -21 -18 -42 -29 -51 -25
-13 5 -15 652 -13 5803 2 3189 7 5804 11 5811 13 20 20 15 80 -47z m20118 23
c4 -16 7 -287 8 -602 1 -450 -2 -574 -11 -577 -7 -3 -240 -4 -518 -3 l-504 3
49 58 c28 32 79 88 115 125 36 37 74 85 84 107 10 22 42 65 71 95 28 30 65 75
80 100 16 25 56 74 88 109 32 35 64 75 70 90 6 14 46 63 89 109 43 46 78 90
78 97 0 8 34 50 75 94 41 44 75 86 75 92 0 16 122 140 134 136 6 -2 14 -17 17
-33z m-3099 -177 c-40 -40 -76 -85 -80 -99 -4 -14 -44 -65 -90 -113 l-84 -86
-191 6 c-106 3 -279 8 -384 9 -106 2 -200 6 -208 10 -24 9 -18 36 11 46 14 6
29 8 34 5 4 -2 25 9 45 25 36 28 43 30 131 30 92 0 93 0 114 30 19 27 27 30
75 30 46 0 60 5 88 30 33 28 39 30 120 30 81 0 88 2 119 29 30 26 41 29 120
32 80 4 90 6 115 32 23 23 36 27 83 27 l54 0 -72 -73z m-12674 -490 c2 -10 -3
-17 -12 -17 -18 0 -29 16 -21 31 9 14 29 6 33 -14z m17852 -1074 c0 -45 0 -46
-20 -28 -25 22 -26 51 -2 64 9 6 18 11 20 11 1 0 2 -21 2 -47z m-12206 -1651
c8 -13 -11 -35 -23 -28 -16 10 -14 36 3 36 8 0 17 -4 20 -8z m8426 -842 l34
-30 146 0 145 -1 35 -29 c19 -17 46 -30 60 -30 14 -1 41 -14 60 -30 19 -17 45
-30 57 -30 15 0 48 -23 88 -60 63 -58 66 -60 120 -60 51 0 59 -3 98 -39 l42
-40 3 -185 3 -185 51 -46 c30 -27 60 -45 74 -45 15 0 48 -22 90 -60 44 -40 74
-60 91 -60 18 0 49 -23 107 -79 70 -68 87 -79 124 -84 24 -3 46 -8 49 -10 2
-3 7 -34 10 -69 4 -47 11 -69 28 -88 13 -14 27 -42 30 -63 7 -38 36 -67 65
-67 9 0 34 -18 55 -40 l40 -41 0 -468 0 -467 -27 -33 c-16 -18 -28 -44 -28
-58 0 -18 -17 -44 -55 -84 -38 -40 -55 -66 -55 -84 0 -18 -19 -46 -65 -95 -46
-49 -65 -77 -65 -96 0 -15 -13 -41 -30 -61 -18 -20 -30 -45 -30 -61 0 -20 -14
-41 -49 -76 -40 -39 -50 -56 -55 -93 -4 -30 -16 -57 -36 -79 -16 -19 -30 -43
-30 -52 0 -10 -25 -42 -55 -72 -40 -40 -55 -62 -55 -82 0 -16 -12 -41 -29 -60
-15 -18 -31 -49 -35 -69 -3 -20 -17 -46 -30 -58 -13 -12 -26 -39 -30 -59 -3
-25 -18 -49 -41 -72 -21 -20 -35 -44 -35 -58 0 -18 -27 -52 -92 -119 l-93 -95
-47 5 c-46 4 -48 3 -48 -22 0 -19 -23 -48 -90 -114 -66 -65 -91 -97 -96 -121
-3 -20 -21 -49 -44 -71 -47 -46 -98 -52 -147 -17 -17 12 -34 22 -37 22 -3 0
-6 -18 -6 -41 0 -36 -7 -48 -60 -103 -44 -46 -60 -70 -60 -90 0 -20 -16 -45
-60 -90 -44 -46 -60 -70 -60 -90 0 -20 -16 -45 -60 -90 -33 -35 -60 -72 -60
-83 0 -11 -13 -37 -30 -58 -18 -23 -30 -50 -30 -67 0 -23 -14 -45 -60 -92 -42
-44 -60 -70 -60 -89 0 -15 -13 -41 -30 -60 -17 -20 -30 -46 -30 -60 0 -15 -13
-41 -30 -60 -16 -19 -30 -44 -30 -55 0 -11 -12 -35 -27 -53 -20 -23 -29 -48
-34 -90 -5 -44 -13 -64 -30 -78 -19 -15 -24 -32 -29 -94 -5 -61 -11 -81 -33
-107 -15 -17 -27 -41 -27 -52 0 -11 -13 -36 -30 -55 -25 -28 -30 -42 -30 -85
0 -42 -5 -56 -30 -85 -26 -29 -30 -41 -30 -95 0 -53 -4 -65 -30 -95 -17 -19
-30 -45 -30 -60 0 -14 -13 -40 -30 -60 -16 -18 -30 -43 -30 -55 0 -12 -12 -35
-27 -50 -23 -24 -28 -40 -34 -102 -4 -54 -11 -81 -27 -101 -12 -15 -22 -35
-22 -44 0 -9 -16 -34 -35 -54 -20 -21 -35 -47 -35 -61 0 -13 -13 -40 -30 -61
-26 -32 -30 -46 -30 -98 0 -52 -4 -64 -30 -94 -16 -18 -30 -42 -30 -51 0 -10
-11 -33 -25 -52 -16 -22 -25 -47 -25 -71 0 -28 -6 -41 -24 -52 -15 -10 -25
-29 -29 -54 -4 -22 -17 -49 -31 -62 -14 -14 -26 -38 -29 -65 -4 -28 -16 -54
-35 -74 -16 -17 -32 -44 -36 -59 -4 -19 -23 -40 -57 -63 -54 -37 -149 -166
-149 -202 0 -30 -55 -129 -99 -178 -28 -31 -41 -54 -41 -74 0 -24 -22 -52
-120 -151 -99 -100 -120 -126 -120 -151 0 -25 -38 -67 -270 -299 -231 -231
-269 -273 -272 -302 -3 -29 -79 -109 -618 -648 l-614 -615 -44 43 c-24 23 -49
54 -55 69 -7 15 -43 62 -82 104 -38 43 -75 89 -81 103 -7 14 -43 59 -82 100
-39 41 -76 86 -83 100 -8 14 -42 59 -76 99 -35 40 -63 78 -63 85 0 7 -32 46
-71 87 -39 41 -76 89 -83 105 -7 17 -40 57 -72 90 -33 33 -76 83 -96 110 -20
28 -62 75 -92 105 -31 30 -56 62 -56 72 0 10 -31 51 -68 90 -37 40 -73 85 -79
100 -7 15 -43 60 -81 100 -38 40 -73 84 -77 97 -4 14 -45 64 -91 113 -46 48
-84 95 -84 103 0 8 -26 43 -58 77 -32 35 -77 90 -99 123 -23 33 -58 76 -78 95
-20 19 -42 49 -49 65 -7 17 -50 70 -95 118 -44 49 -81 94 -81 102 0 7 -29 45
-65 84 -36 39 -65 77 -65 84 0 6 -32 46 -71 87 -38 41 -76 89 -83 106 -8 17
-39 57 -71 90 -31 32 -65 75 -75 94 -10 19 -47 65 -83 102 -35 37 -69 80 -76
95 -6 15 -36 54 -66 86 -31 32 -73 82 -94 110 -21 29 -62 75 -90 102 -29 28
-62 73 -75 100 -13 28 -49 77 -80 110 -31 33 -56 64 -56 68 0 5 -25 34 -55 66
-31 32 -57 71 -61 87 -5 26 2 38 66 104 39 41 78 89 85 107 8 18 38 57 67 87
29 30 62 71 72 90 11 20 52 70 93 112 40 41 73 83 73 93 0 10 29 48 66 85 36
36 75 84 88 106 13 23 49 68 80 100 31 33 62 72 68 87 7 16 43 60 80 99 37 40
74 85 81 101 6 17 43 63 81 104 38 41 74 86 80 100 6 15 39 56 73 92 33 36 64
76 68 89 4 13 39 56 77 97 39 40 76 87 83 105 8 17 43 60 79 95 36 36 71 78
77 95 7 17 43 64 81 104 37 39 68 79 68 88 0 9 36 54 80 100 44 46 80 88 80
94 0 6 32 45 72 86 40 41 77 87 84 102 6 15 39 56 73 92 34 36 71 81 81 100
11 19 45 62 76 95 31 33 62 74 70 90 7 17 45 63 84 104 38 41 72 84 76 95 3
12 37 53 74 91 38 39 79 89 92 112 12 22 46 66 75 97 28 30 55 66 59 78 3 13
42 60 85 105 44 46 79 91 79 101 0 9 30 47 66 82 36 36 76 85 89 110 13 25 44
65 70 90 26 25 63 70 82 100 19 30 56 78 82 105 26 28 64 73 84 100 20 28 57
70 82 95 25 24 58 67 71 95 14 27 54 79 88 115 35 36 71 81 81 100 10 19 51
71 92 114 40 44 73 84 73 89 0 5 23 32 51 60 28 28 57 63 63 78 7 16 37 54 67
86 30 33 70 81 89 108 18 28 60 78 92 113 32 34 58 70 58 79 0 8 38 56 85 105
47 49 92 103 101 121 9 18 41 58 71 90 29 32 61 73 70 90 9 18 49 67 89 110
41 43 74 85 74 93 0 8 34 51 76 96 42 45 82 95 89 112 8 17 30 47 50 66 20 19
50 54 66 78 l30 42 473 0 472 0 29 30 29 30 176 0 176 0 29 30 29 30 195 0
196 -1 35 -29z m-7699 -841 c13 -26 -2 -69 -25 -69 -21 0 -39 37 -32 66 8 30
41 32 57 3z m-13052 -3491 l1 -3438 -32 -13 c-18 -8 -42 -24 -52 -36 -18 -20
-29 -21 -167 -21 l-148 0 -34 -30 -35 -30 -175 0 -176 0 -34 -30 -35 -30 -144
0 c-136 0 -147 -2 -174 -22 -26 -21 -41 -23 -210 -28 -176 -5 -183 -6 -208
-29 -18 -17 -38 -25 -68 -25 -37 -1 -43 2 -46 21 -2 13 6 36 17 51 14 20 21
48 23 93 3 60 4 64 29 67 15 2 32 -5 44 -18 37 -41 45 -27 45 76 0 93 1 98 30
131 30 33 30 35 30 151 l0 118 30 29 c29 28 30 32 30 120 0 88 1 92 30 120
l30 29 0 121 0 121 30 29 30 29 0 151 0 151 30 29 30 29 0 271 0 271 30 29 30
29 0 229 0 229 30 35 30 34 0 206 0 205 30 35 30 34 0 176 0 175 30 35 30 34
0 146 0 145 30 35 30 34 0 146 0 145 30 35 c30 33 30 35 30 152 0 102 2 120
19 135 13 12 20 36 24 82 4 53 10 71 31 93 23 23 26 36 26 92 0 84 11 118 49
156 18 19 31 42 31 57 0 33 17 77 41 102 10 11 28 49 39 85 12 35 25 73 30 84
5 11 11 52 13 90 3 48 11 81 26 105 15 25 21 51 21 94 0 51 4 63 31 94 24 27
30 41 25 63 -7 38 9 88 41 121 22 23 28 40 31 90 3 41 10 70 22 83 10 11 21
38 25 60 4 22 18 50 31 64 17 17 24 35 24 62 0 51 14 85 50 121 26 26 30 37
30 85 0 47 4 60 30 90 26 29 30 41 30 92 0 44 5 62 19 75 10 9 21 35 24 56 3
22 17 54 31 71 20 24 26 41 26 79 0 40 5 55 30 83 17 19 30 41 30 49 0 8 5 30
12 48 10 30 12 32 19 14 4 -10 8 -1566 8 -3456z m26436 1912 c12 -19 -6 -50
-28 -50 -19 0 -22 -6 -22 -42 0 -37 -6 -49 -46 -90 -36 -38 -53 -48 -77 -48
-62 0 -85 49 -62 131 12 44 42 59 115 59 39 0 55 4 55 13 0 30 50 51 65 27z
m-17897 -1101 c23 -23 49 -56 57 -75 7 -18 41 -61 74 -94 34 -34 61 -67 61
-75 0 -7 32 -50 70 -94 39 -45 81 -98 95 -119 13 -20 54 -68 90 -107 36 -38
65 -76 65 -84 0 -7 31 -45 69 -85 38 -39 75 -85 83 -103 7 -17 43 -63 80 -102
37 -38 73 -82 82 -98 8 -15 44 -57 80 -93 36 -35 66 -72 66 -82 0 -9 36 -54
80 -100 43 -46 79 -90 80 -99 0 -9 30 -49 68 -89 37 -40 75 -89 85 -108 9 -20
45 -64 78 -98 34 -34 68 -76 75 -93 7 -17 45 -64 84 -103 38 -40 70 -80 70
-89 0 -9 30 -47 66 -85 36 -38 74 -86 85 -107 11 -21 51 -70 89 -109 39 -40
70 -79 70 -86 0 -8 14 -31 30 -52 l30 -38 -42 -36 -42 -36 -206 0 c-200 0
-208 -1 -236 -22 -27 -22 -38 -23 -233 -26 l-205 -3 -33 -30 -34 -29 -208 0
c-182 0 -210 -2 -222 -17 -29 -35 -74 -43 -233 -43 -134 0 -157 2 -176 18 -32
26 -22 45 73 140 l83 83 59 2 c42 1 61 7 69 19 7 11 7 21 1 27 -6 6 -192 10
-475 11 -443 2 -469 1 -544 -19 -44 -12 -81 -19 -84 -16 -3 2 -16 -5 -30 -15
-30 -24 -68 -26 -76 -4 -3 9 -6 62 -6 118 0 101 0 103 30 131 29 28 30 32 30
120 0 88 1 92 30 120 27 26 30 34 30 95 0 53 4 71 19 84 10 9 21 34 25 55 3
21 17 47 31 61 28 26 33 61 10 80 -8 7 -17 28 -21 47 -6 30 -2 38 25 65 28 27
31 37 31 87 0 51 4 61 30 86 27 26 30 34 30 96 0 46 4 70 14 78 8 7 18 27 22
44 4 22 38 64 105 132 l99 100 0 64 c0 56 3 67 30 98 25 28 30 42 30 84 0 43
5 55 30 81 29 29 30 32 30 123 0 82 2 96 19 104 15 8 20 25 23 79 3 57 8 74
31 101 20 25 27 43 27 76 0 46 14 95 27 95 5 0 27 -19 51 -41z m15579 -3835
c-3 -3 -12 -4 -19 -1 -8 3 -5 6 6 6 11 1 17 -2 13 -5z m-1590 -1361 c-3 -10
-5 -4 -5 12 0 17 2 24 5 18 2 -7 2 -21 0 -30z m-72 -8461 c-4 -39 -12 -65 -20
-69 -16 -6 -64 27 -65 44 0 7 -26 41 -58 75 -32 35 -63 75 -69 89 -6 15 -39
56 -72 91 -33 36 -64 75 -69 87 -8 24 -116 149 -239 280 -40 43 -73 86 -73 95
0 10 -36 55 -80 100 -44 45 -80 90 -80 100 0 10 -31 50 -69 90 -38 39 -72 82
-76 96 -4 14 -40 59 -80 100 -40 41 -76 86 -80 100 -4 14 -34 52 -65 85 -32
33 -76 87 -98 120 -22 33 -57 76 -77 95 -36 35 -95 114 -95 128 0 4 -25 32
-56 62 -30 30 -61 69 -69 86 -7 18 -44 65 -83 105 -38 41 -72 84 -76 96 -4 12
-45 63 -92 112 -46 50 -84 97 -84 105 0 8 -31 49 -70 91 -38 42 -70 83 -70 90
0 8 -36 53 -80 100 -44 47 -80 92 -80 99 0 7 -26 41 -57 76 -32 34 -63 73 -69
86 -5 14 -41 59 -80 101 -38 42 -75 85 -83 97 -8 12 -45 53 -83 92 -37 40 -68
79 -68 88 0 8 -29 46 -64 83 -35 38 -71 84 -81 103 -10 19 -45 63 -78 97 -33
35 -71 82 -84 105 -13 24 -50 70 -82 103 -32 33 -70 80 -84 105 -15 25 -53 72
-87 105 -33 33 -60 65 -60 72 0 6 83 94 185 195 161 160 185 188 185 215 0 26
15 47 90 121 74 74 90 96 90 121 0 23 11 41 50 78 41 39 50 54 50 81 0 29 13
47 88 125 73 76 90 99 95 132 5 29 22 57 61 102 30 35 57 72 61 83 4 11 31 43
61 72 44 41 54 57 54 83 0 27 14 46 90 121 80 78 90 92 90 123 0 34 35 71 649
686 501 501 651 657 655 681 4 18 28 52 61 84 39 38 57 65 61 90 4 25 23 53
65 95 58 60 58 60 58 120 -1 51 2 62 24 81 37 31 47 57 47 116 0 43 5 57 25
77 21 19 25 33 25 77 0 44 5 59 29 86 17 20 30 49 33 75 3 23 17 57 31 75 14
18 29 47 32 63 9 37 43 97 84 149 17 21 31 51 31 65 0 20 17 45 63 90 l62 64
3 -4164 c2 -2290 0 -4192 -3 -4227z m-13940 7713 c-25 -31 -45 -62 -45 -69 0
-7 -32 -47 -71 -87 -39 -41 -77 -87 -85 -104 -7 -16 -39 -57 -70 -90 -31 -33
-62 -73 -70 -90 -7 -16 -43 -61 -80 -100 -36 -38 -72 -83 -80 -100 -7 -16 -40
-57 -74 -90 -34 -33 -70 -77 -79 -97 -9 -20 -52 -74 -95 -120 -43 -46 -83 -94
-89 -108 -6 -14 -42 -58 -80 -98 -37 -40 -73 -85 -79 -100 -7 -15 -33 -49 -59
-77 -26 -27 -58 -69 -71 -92 -12 -23 -53 -73 -91 -111 -37 -39 -74 -85 -81
-103 -8 -19 -33 -52 -56 -74 -23 -22 -57 -64 -76 -92 -18 -29 -65 -87 -104
-128 -38 -42 -70 -83 -70 -92 0 -8 -31 -47 -69 -87 -38 -39 -76 -87 -86 -106
-10 -19 -43 -62 -74 -95 -31 -33 -70 -78 -86 -100 -17 -22 -54 -65 -83 -95
-29 -30 -61 -71 -72 -90 -10 -19 -44 -62 -76 -95 -31 -33 -62 -72 -68 -86 -6
-14 -42 -59 -80 -100 -38 -41 -74 -85 -79 -99 -6 -14 -42 -58 -80 -98 -37 -40
-73 -85 -79 -100 -7 -15 -38 -55 -70 -89 -32 -34 -64 -75 -71 -91 -7 -17 -44
-64 -84 -105 -39 -41 -74 -85 -78 -98 -9 -28 -34 -59 -48 -59 -12 0 1 51 19
71 8 8 14 27 14 42 0 39 17 75 50 109 20 20 30 39 30 60 0 17 8 38 18 47 26
24 42 67 42 113 0 31 7 49 30 75 19 21 30 45 30 63 0 22 12 40 50 76 36 33 51
56 56 83 8 47 68 111 104 111 14 0 35 7 47 15 20 14 22 24 25 199 3 184 3 185
29 213 24 25 27 37 31 122 4 86 6 96 30 116 40 35 48 58 48 143 0 64 3 82 19
96 13 12 20 36 23 87 4 57 10 75 31 97 20 21 26 40 29 89 3 50 9 67 30 88 14
14 29 42 33 63 4 25 18 46 41 65 25 21 34 36 34 60 0 44 62 107 105 107 24 0
42 12 82 53 50 51 51 53 50 109 -1 45 3 62 20 80 18 19 22 38 25 118 3 83 6
98 26 118 29 29 43 65 43 111 0 95 11 167 29 186 10 11 21 36 25 56 4 22 23
54 46 80 l40 44 94 3 c77 3 97 7 111 23 14 16 31 19 110 19 85 0 95 2 124 26
29 25 39 27 133 28 84 1 109 6 144 24 23 12 49 22 57 22 8 0 16 5 18 10 2 6
37 14 78 17 58 5 81 11 103 29 26 22 38 24 138 24 111 0 138 7 172 41 15 16
34 19 120 20 56 0 111 4 122 9 11 5 21 9 23 9 1 1 -18 -24 -43 -54z m-1667
-337 c23 -23 14 -78 -18 -115 -17 -19 -30 -45 -30 -60 0 -14 -8 -40 -19 -57
-10 -17 -22 -47 -25 -66 -9 -45 -84 -110 -127 -110 -46 0 -69 31 -69 94 0 40
-6 60 -22 81 -14 19 -21 41 -21 72 0 36 5 50 33 78 23 24 43 35 62 35 17 0 41
12 60 30 29 26 40 29 99 30 37 0 70 -5 77 -12z m-4320 -840 c3 -21 -3 -30 -27
-42 -16 -9 -38 -27 -49 -40 -10 -14 -32 -28 -48 -32 -16 -3 -56 -33 -90 -66
-71 -69 -74 -67 -74 48 l0 74 -56 0 c-34 0 -53 4 -49 10 3 6 48 10 100 10 90
0 94 1 115 28 22 27 73 41 145 38 25 -1 31 -6 33 -28z m1909 -6940 c-3 -8 -6
-5 -6 6 -1 11 2 17 5 13 3 -3 4 -12 1 -19z m-4252 -368 c-3 -5 -14 -10 -23
-10 -15 0 -15 2 -2 10 20 13 33 13 25 0z"/>
</g>
</svg>
